<?xml version="1.0" standalone="no"?><!DOCTYPE svg PUBLIC "-//W3C//DTD SVG 1.1//EN" "http://www.w3.org/Graphics/SVG/1.1/DTD/svg11.dtd"><svg t="1573115828221" class="icon" viewBox="0 0 1024 1024" version="1.1" xmlns="http://www.w3.org/2000/svg" p-id="799" data-spm-anchor-id="a313x.7781069.0.i3" xmlns:xlink="http://www.w3.org/1999/xlink" width="200" height="200"><defs><style type="text/css"></style></defs><path d="M651 547.2h-49.6c-86 0-155.7-69.7-155.7-155.7v-88.6c0-93 75.4-168.4 168.4-168.4h21.1c93.8 0 169.8 76 169.8 169.8v88.9c0 85.1-68.9 154-154 154z" fill="#3F6266" p-id="800" data-spm-anchor-id="a313x.7781069.0.i0" class="selected"></path><path d="M512 149.3c36.6 0 71 14.2 96.9 40.1 25.9 25.9 40.1 60.3 40.1 96.9v88.5c0 36.6-14.2 71-40.1 96.9-25.9 25.9-60.3 40.1-96.9 40.1-36.6 0-71-14.2-96.9-40.1-25.9-25.9-40.1-60.3-40.1-96.9v-88.5c0-36.6 14.2-71 40.1-96.9 25.9-25.8 60.3-40.1 96.9-40.1m0-67.9c-113.2 0-204.9 91.7-204.9 204.9v88.5c0 113.2 91.7 204.9 204.9 204.9S716.9 488 716.9 374.8v-88.5c0-113.2-91.7-204.9-204.9-204.9zM730.4 698.4c23.6 0 46 9.3 62.9 26.2s26.2 39.3 26.2 62.9v74c0 7.1-6 13.1-13.1 13.1H217.6c-7.1 0-13.1-6-13.1-13.1v-74c0-23.6 9.3-46 26.2-62.9s39.3-26.2 62.9-26.2h436.8m0-67.9H293.6c-86.4 0-157.1 70.7-157.1 157.1v74c0 44.6 36.5 81.1 81.1 81.1h588.8c44.6 0 81.1-36.5 81.1-81.1v-74c0-86.5-70.7-157.1-157.1-157.1z" fill="#322153" p-id="801" data-spm-anchor-id="a313x.7781069.0.i2" class=""></path></svg>