<svg id="图层_1" data-name="图层 1" xmlns="http://www.w3.org/2000/svg" viewBox="0 0 105.67 104.33"><defs><style>.cls-1{fill:#fff;}.cls-2{fill:#040000;}.cls-3{fill:#bb2e26;}</style></defs><title>conmercialBank</title><path class="cls-1" d="M-.33.36H105.33V104.69H-.33Z" transform="translate(0.33 -0.36)"/><path class="cls-2" d="M30.93,63.09h-.27V60.72H31Z" transform="translate(0.33 -0.36)"/><path class="cls-2" d="M32.76,60.72l.3,0,0,2.34h-.3l-1-1.89,0,1.89H31.4l0-2.37h.33l1,1.89Z" transform="translate(0.33 -0.36)"/><path class="cls-2" d="M33.5,60.75h.83c.53,0,.86.47.86,1.15s-.21,1.21-.89,1.21h-.83l0-2.37m.27,2.07h.53c.35,0,.59-.33.59-.92s-.24-.89-.62-.89h-.5Z" transform="translate(0.33 -0.36)"/><path class="cls-2" d="M37.17,60.75v1.51a.81.81,0,0,1-.72.88h-.1a.77.77,0,0,1-.8-.86V60.72h.27V62.2c0,.5.27.65.53.65s.53-.12.53-.65V60.72Z" transform="translate(0.33 -0.36)"/><path class="cls-2" d="M38.82,61.43a.45.45,0,0,0-.43-.48h-.07c-.18,0-.47.06-.47.41a.27.27,0,0,0,.24.3l.59.15a.59.59,0,0,1,.47.62.7.7,0,0,1-.8.71.68.68,0,0,1-.62-.24.77.77,0,0,1-.21-.59h.27a.52.52,0,0,0,.48.56h.08c.21,0,.53-.06.53-.38s-.09-.33-.44-.41L38,62a.53.53,0,0,1-.44-.56.66.66,0,0,1,.62-.71h.09a.7.7,0,0,1,.8.74Z" transform="translate(0.33 -0.36)"/><path class="cls-2" d="M39.33,60.75H41V61H40.3l0,2H40V61h-.68Z" transform="translate(0.33 -0.36)"/><path class="cls-2" d="M41.54,63.09h-.27V60.75h.95a.6.6,0,0,1,.68.62.56.56,0,0,1-.3.56c.12.06.24.12.24.44l0,.41A.29.29,0,0,0,43,63v.06h-.33a5,5,0,0,1-.06-.59c0-.18,0-.41-.35-.41h-.68v1m0-1.27h.65c.21,0,.41-.06.41-.41s-.24-.38-.35-.38h-.68Z" transform="translate(0.33 -0.36)"/><path class="cls-2" d="M43.61,63.12h-.27V60.75h.27Z" transform="translate(0.33 -0.36)"/><path class="cls-2" d="M44.41,62.44l-.21.68h-.3l.77-2.34H45l.74,2.34h-.3l-.21-.68h-.83m.71-.3-.3-1-.33,1Z" transform="translate(0.33 -0.36)"/><path class="cls-2" d="M46.27,62.82l1,0v.27H46V60.78h.3Z" transform="translate(0.33 -0.36)"/><path class="cls-2" d="M48.7,62.44l-.21.68h-.3L49,60.78h.33L50,63.12h-.3l-.21-.68H48.7m.71-.27-.3-1-.33,1Z" transform="translate(0.33 -0.36)"/><path class="cls-2" d="M51.62,60.78h.27v2.34h-.3l-1.06-1.89v1.89h-.27V60.78h.33l1,1.89Z" transform="translate(0.33 -0.36)"/><path class="cls-2" d="M52.33,60.78h.83c.53,0,.86.47.86,1.15s-.21,1.21-.89,1.21H52.3l0-2.37m.3,2.07h.53c.35,0,.59-.33.59-.92s-.24-.89-.62-.89h-.5Z" transform="translate(0.33 -0.36)"/><path class="cls-2" d="M56.62,61.49a.54.54,0,0,0-.56-.47c-.38,0-.68.3-.68.92s.18,1,.68,1c.18,0,.5-.09.59-.65h.27c-.12.89-.74.92-.89.92-.47,0-.92-.35-.92-1.24,0-.71.35-1.21.95-1.21a.8.8,0,0,1,.83.76h-.27Z" transform="translate(0.33 -0.36)"/><path class="cls-2" d="M58.13,63.21c-.77,0-1-.74-1-1.24s.24-1.24,1-1.24,1,.74,1,1.24-.24,1.24-1,1.24m0-2.19c-.44,0-.71.41-.71.95s.27.95.71.95.71-.38.71-.95S58.57,61,58.13,61Z" transform="translate(0.33 -0.36)"/><path class="cls-2" d="M61.14,63.15v-2l-.59,2h-.27l-.56-2v2h-.27V60.81h.38l.59,2,.59-2h.38v2.34Z" transform="translate(0.33 -0.36)"/><path class="cls-2" d="M63.51,63.15v-2l-.59,2h-.27l-.56-2v2h-.27V60.81h.38l.59,2,.59-2h.38v2.34Z" transform="translate(0.33 -0.36)"/><path class="cls-2" d="M65.76,63.18H64.22l0-2.37h1.48v.3H64.52v.71h1.12v.3H64.52v.77h1.24Z" transform="translate(0.33 -0.36)"/><path class="cls-2" d="M66.41,63.18h-.27V60.84h.95a.6.6,0,0,1,.68.62.56.56,0,0,1-.3.56c.12.06.24.12.24.44l0,.41a.24.24,0,0,0,.12.24v.06h-.33a5,5,0,0,1-.06-.59c0-.21,0-.41-.35-.41h-.68l0,1m0-1.27h.65c.21,0,.41-.06.41-.41s-.24-.38-.35-.38h-.68Z" transform="translate(0.33 -0.36)"/><path class="cls-2" d="M69.6,61.55A.6.6,0,0,0,69,61c-.38,0-.68.33-.68.92s.18,1,.68,1c.18,0,.5-.09.59-.65h.27c-.12.89-.74.92-.89.92-.47,0-.92-.35-.92-1.24,0-.71.35-1.21.95-1.21a.8.8,0,0,1,.83.76H69.6Z" transform="translate(0.33 -0.36)"/><path class="cls-2" d="M70.55,63.18h-.3l0-2.34h.27Z" transform="translate(0.33 -0.36)"/><path class="cls-2" d="M71.34,62.5l-.21.68h-.3l.77-2.34h.33l.74,2.34h-.3l-.21-.68h-.83m.71-.27-.3-1-.33,1Z" transform="translate(0.33 -0.36)"/><path class="cls-2" d="M73.21,62.91h1v.27H72.91V60.84h.3Z" transform="translate(0.33 -0.36)"/><path class="cls-2" d="M75.31,60.84h.89a.56.56,0,0,1,.59.59.62.62,0,0,1-.27.5.56.56,0,0,1,.35.56.64.64,0,0,1-.6.68h-1l0-2.34m.27,1h.5c.27,0,.44-.09.44-.38s-.12-.35-.41-.35h-.5l0,.74m0,1.06h.59a.4.4,0,0,0,.44-.41c0-.33-.27-.38-.47-.38H75.6Z" transform="translate(0.33 -0.36)"/><path class="cls-2" d="M77.52,62.53l-.21.68H77l.77-2.34h.33l.74,2.34h-.3l-.21-.68h-.83m.71-.3-.3-1-.33,1Z" transform="translate(0.33 -0.36)"/><path class="cls-2" d="M80.45,60.87h.27v2.34h-.3l-1-1.89h0v1.89h-.27l0-2.34h.33l1,1.89Z" transform="translate(0.33 -0.36)"/><path class="cls-2" d="M81.43,63.21h-.27V60.87h.27V62l1-1.12h.38l-.86.95.86,1.39h-.35L81.75,62l-.33.35Z" transform="translate(0.33 -0.36)"/><path class="cls-2" d="M84.74,63.27c-.77,0-1-.74-1-1.24s.24-1.24,1-1.24,1,.74,1,1.24-.24,1.24-1,1.24m0-2.16c-.44,0-.71.41-.71.95s.27.95.71.95.71-.41.71-.95S85.18,61.11,84.74,61.11Z" transform="translate(0.33 -0.36)"/><path class="cls-2" d="M86.36,63.24l-.27,0V60.87h1.42v.3H86.39v.71h1v.3l-1,0Z" transform="translate(0.33 -0.36)"/><path class="cls-2" d="M90,61.58a.54.54,0,0,0-.56-.47c-.35,0-.68.33-.68.92s.18,1,.68,1c.18,0,.5-.09.59-.65h.27c-.12.89-.74.92-.89.92-.47,0-.92-.35-.92-1.24,0-.71.35-1.21.95-1.21a.8.8,0,0,1,.83.76H90Z" transform="translate(0.33 -0.36)"/><path class="cls-2" d="M92,60.9h.3l0,2.34H92V62.14H90.95v1.09h-.27V60.9h.27v.95l1.06,0Z" transform="translate(0.33 -0.36)"/><path class="cls-2" d="M93,63.24h-.27V60.9H93Z" transform="translate(0.33 -0.36)"/><path class="cls-2" d="M94.88,60.9h.27v2.34h-.33l-1-1.89v1.89h-.27V60.9h.33l1,1.89Z" transform="translate(0.33 -0.36)"/><path class="cls-2" d="M95.88,62.56l-.21.68h-.3l.77-2.34h.33l.74,2.34h-.3l-.21-.68h-.83m.74-.27-.3-1-.35,1Z" transform="translate(0.33 -0.36)"/><path class="cls-3" d="M10.82,49.55H16v1.51H12.33V52.5H16v4.14H12.33v1.74H16v1.36H10.82V55.11h3.75V53.86H10.82Z" transform="translate(0.33 -0.36)"/><path class="cls-3" d="M21.82,49.55H16.65v1.51h3.67V52.5H16.65v4.14h3.67v1.74H16.65v1.36h5.17V55.11H18.06V53.86h3.75Z" transform="translate(0.33 -0.36)"/><path class="cls-3" d="M6.8,54.37a9.52,9.52,0,1,1,9.52,9.52A9.52,9.52,0,0,1,6.8,54.37s0,0,0,0m9.52,8.31A8.31,8.31,0,1,0,8,54.37,8.31,8.31,0,0,0,16.32,62.67Z" transform="translate(0.33 -0.36)"/><path class="cls-2" d="M58.39,48.57h3.07V47.21H53.75v1.36h3V54H53.43v1.24h8.31v-1.3H58.39Z" transform="translate(0.33 -0.36)"/><path class="cls-2" d="M35.48,46.41H34.09V48.1H30.63v5.17h1.18l0-.33h2.22V56h1.39V52.95h2.13v.33h1.33V48.1H35.45V46.41Zm-1.39,5.23H31.93V49.4h2.16Zm3.52-2.31v2.25H35.48V49.34Z" transform="translate(0.33 -0.36)"/><path class="cls-2" d="M47.57,51.41H48v-.95H46.6v-.86h1.6v-1H43.82v1h1.66v.86H44v.92h1.42v1.24H43.73v1h4.43v-1h-.38l.47-.56Zm-1,1.24V51.41h.68l-.44.59.68.65h-.92Z" transform="translate(0.33 -0.36)"/><path class="cls-2" d="M42.1,55.81h1.15v-.24h5.5v.3H50v-9h-8v8.9ZM43.26,48h5.53v6.36H43.26Z" transform="translate(0.33 -0.36)"/><path class="cls-2" d="M70,46.62H68.48v.89H65v1.12h1.69l.71,1.09H65.46v6.21h1.21V50.76h1.39l-1.3,1.39.44.56.12-.09V55H68.5v-.21H70v.24a1.23,1.23,0,0,1,.83,0c.56.15.59.56.53,1,.86.06,1.66-.15,1.6-1V49.72h-1.8l.59-1.09h1.72V47.51H70ZM69.87,54H68.39v-1l1.48,0Zm1.86-3.19v3.93H70.9V52.53l.21.12.56-.53-1.18-1.39h1.24ZM70.4,51.94H68.09l.65-.59-.41-.59h1.92l-.44.47Zm-.21-3.31-.44,1.09h-1l-.65-1.09Z" transform="translate(0.33 -0.36)"/><path class="cls-2" d="M79.15,50.7h.95V49.61H77.64a6.58,6.58,0,0,0,.59-.83h1.86V47.71H78.68a2.15,2.15,0,0,0,.38-.59,9,9,0,0,1-1.12-.5,9.06,9.06,0,0,1-1.69,2.51,2.19,2.19,0,0,1,.44,1.33c.3-.18.18-.12.35-.3s0,.44,0,.44H78v.68H76.78v1.12H78v2.16l-.83.53.44.77L80,54.34l-.18-.92-.65.38V52.39h1.06v-1H79.15V50.7Z" transform="translate(0.33 -0.36)"/><path class="cls-2" d="M84.09,53.3l1.18-1-.74-.74-.95.83a2.88,2.88,0,0,1-.21-.92h1.51V47h-4.2v7.74l-.41.24.27.95s1.69-1.06,2.31-1.42a4.59,4.59,0,0,1-.21-1,4.1,4.1,0,0,1-.83.5V51.5a2.22,2.22,0,0,0,.44,0,6.6,6.6,0,0,0,2.37,4.38,8.21,8.21,0,0,0,.86-1.09A4.84,4.84,0,0,1,84.09,53.3Zm-2.28-5.38h2v.83h-2Zm0,2.57v-.83h2v.83Z" transform="translate(0.33 -0.36)"/><path class="cls-2" d="M92.78,47.18H97v1.12H92.78Z" transform="translate(0.33 -0.36)"/><path class="cls-2" d="M92.31,49.84c.15-.15.27-.3.3-.33l-1.09-.83a16.42,16.42,0,0,1-2.72,2.87,6.81,6.81,0,0,1,.38,1.27c.12-.09.41-.33.77-.65v3.87h1.21V51c.38-.35.74-.71,1-1v1h2.51v3.22c0,.38-.06.47-.5.47s-.65-.06-.38.21a1.45,1.45,0,0,1,.3,1.09c1.12.12,2-.3,2-1.33V51.05h1.36V49.87H92.31Z" transform="translate(0.33 -0.36)"/><path class="cls-2" d="M91.65,47.66l-.92-1L88.4,48.87A2.06,2.06,0,0,1,89.05,50C89.61,49.55,91.65,47.66,91.65,47.66Z" transform="translate(0.33 -0.36)"/></svg>