<svg id="图层_1" data-name="图层 1" xmlns="http://www.w3.org/2000/svg" viewBox="0 0 105.67 104.33"><defs><style>.cls-1{fill:#fff;}.cls-2{fill:#d71718;}.cls-3{fill:#070001;}.cls-4{fill:#040000;}</style></defs><title>czBank</title><path class="cls-1" d="M-.33.36H105.33V104.69H-.33Z" transform="translate(0.33 -0.36)"/><path class="cls-2" d="M31.43,51.7l-8.88-8.88a1.55,1.55,0,0,1,2.19-2.19l8.88,8.88a1.55,1.55,0,0,1-2.19,2.19ZM21.71,48l-5-5a1.55,1.55,0,0,1,2.19-2.19l5,5A1.55,1.55,0,0,1,21.71,48Zm-3,3-5-5a1.55,1.55,0,1,1,2.19-2.19l5,5a1.51,1.51,0,0,1,0,2.19A1.73,1.73,0,0,1,18.68,51.07Zm-3,2.92-5-5a1.55,1.55,0,0,1,2.19-2.19l5,5A1.55,1.55,0,1,1,15.65,54Zm-3,3-5-5a1.55,1.55,0,1,1,2.19-2.19l5,5A1.55,1.55,0,1,1,12.63,57Zm18.8.63-5-5a1.55,1.55,0,0,1,2.19-2.19l5,5a1.55,1.55,0,0,1-2.19,2.19Zm-3,3-5-5a1.55,1.55,0,0,1,2.19-2.19l5,5a1.55,1.55,0,1,1-2.19,2.19Zm-3,3-5-5a1.55,1.55,0,0,1,2.19-2.19l5,5a1.55,1.55,0,1,1-2.19,2.19Zm-3,3-5-5a1.55,1.55,0,1,1,2.19-2.19l5,5a1.55,1.55,0,0,1-2.19,2.19Zm-6,.1L7.51,58A1.55,1.55,0,0,1,9.7,55.77l8.88,8.88a1.55,1.55,0,1,1-2.19,2.19Z" transform="translate(0.33 -0.36)"/><path class="cls-3" d="M38.84,49.08v.1h1.57V49c-.42-.94-.84-1.88-1.25-2.72l-.1-.1H37.59l.1.31a11.67,11.67,0,0,1,1.15,2.61Z" transform="translate(0.33 -0.36)"/><path class="cls-3" d="M46,45.12a.38.38,0,0,1,.42-.42c.94-.21,2-.31,3-.52h.21l-.21-1.25-.21.1c-.94.21-2.09.42-3.34.63A1.36,1.36,0,0,0,44.79,45v.1H43.44v-2.4H42V45H40.41v.52a15.1,15.1,0,0,0-1.15-2.61l-.1-.1H37.69l.1.31a24.59,24.59,0,0,1,1,2.82v.1h2.92v2.82c-.42.21-.84.31-1.25.52H38.95v.21c-.31,1.46-.84,3.13-1.36,4.91l-.1.31H39v-.1c.42-1.46.84-3,1.25-4.39l.21.63.21-.1a10.84,10.84,0,0,1,1-.42v2.92c0,.1,0,.21-.31.21H40.2l.42,1.25h1.15a1.29,1.29,0,0,0,1.46-1.36V49.92c.42-.21.84-.42,1.36-.63v.21a13.64,13.64,0,0,1-.94,4.91l-.1.21L45,55l.1-.21A16.06,16.06,0,0,0,46,49.4V48.14h1.36v6.79h1.46V48.14h1V47H46.15L46,45.12Zm-1.36,2.61-.63.31a5.09,5.09,0,0,0-.73.31V46.16h1.36v1.57Zm15.56-5v-.1H58.69l.1.31a1.76,1.76,0,0,0,.21.52c0,.1.1.1.1.21H53.88v1.25h2.61c.21.31.42.73.63,1H55.87c-1.25,0-1.46.84-1.46,1.25v7.73h1.46V47.62c0-.21.1-.31.42-.42H63.7c.31,0,.42.1.42.31v5.85s0,.1-.31.1H62l.31,1.25h1.88c1.15,0,1.36-.73,1.36-1.15V47.41A1.39,1.39,0,0,0,64,46H62.86a6,6,0,0,0,.42-.73c.1-.21.1-.31.21-.42H66.1V43.55H61a1.63,1.63,0,0,1-.73-.84Zm1.25,2.09c-.21.31-.42.73-.63,1h-2.4a9.18,9.18,0,0,0-.63-1Z" transform="translate(0.33 -0.36)"/><path class="cls-3" d="M62.65,52.32V50.44a1.1,1.1,0,0,0-.52-.94h1.15l-.21-.31a11.11,11.11,0,0,1-1.15-2l-.1-.1H60.36l.1.31c.21.52.63,1.15,1,2H58a12.31,12.31,0,0,0,1.15-2l.1-.31H57.75l-.1.1a13.61,13.61,0,0,1-1.15,2l-.21.31h1a1.41,1.41,0,0,0-.52.94v1.88c0,.63.42.94,1,1h3.66a1,1,0,0,0,1.15-1Zm-4.49-1.57a.28.28,0,0,1,.31-.31h2.4c.21,0,.21.1.31.21V51.8c0,.21-.1.21-.21.21h-2.4c-.21,0-.31-.1-.31-.21v-1Zm14.52-2.92h1.57V46.58H70.7l.63-1.25h3.13V44.18H71.84c0-.1.1-.21.1-.31l.52-1.25H71v.1a13.18,13.18,0,0,1-1.57,3.45l-.1.21.63.31v1h1.46V49.4H69.65v1.15h1.78v2.82a1.11,1.11,0,0,0,1.25,1.25h1.57l.31-1.25H73.1c-.31,0-.31-.1-.31-.21V50.55h1.88V49.4H72.78V47.83Zm6.79,3.86h.63l.1-.1c.52-.73,1-1.46,1.46-2.19l.21-.31H80.41l-.31.1A17.85,17.85,0,0,1,78.95,51c-.31-.52-.73-1.15-1-1.78l-.1-.1H76.44l.1.31a14.44,14.44,0,0,0,4.07,5.54l.1.1,1-.84-.1-.1a12,12,0,0,1-2.19-2.4Z" transform="translate(0.33 -0.36)"/><path class="cls-3" d="M76.13,53.26V49H80.2c.94,0,1.36-.52,1.36-1.46V44.28a1.48,1.48,0,0,0-1.36-1.46H76.13a1.4,1.4,0,0,0-1.46,1.57v9A1.37,1.37,0,0,0,76,54.62h2.09l.42-1.25h-2C76.13,53.58,76.13,53.37,76.13,53.26Zm0-7.83v-.84a.38.38,0,0,1,.42-.42h3.13c.31,0,.42.21.42.31v.94Zm4,1.15v.84c0,.31-.1.42-.42.42H76.13V46.58Zm6.58.21a20.51,20.51,0,0,0,2.51-3.86l.1-.31H87.82l-.1.1A14.68,14.68,0,0,1,85.53,46l-.21.21,1.15.73.21-.1ZM90,43h7.31v1.25H90Zm-.63,3.66v1.25H94.3v5.22c0,.1,0,.21-.1.21a.2.2,0,0,1-.31,0H91.69l.42,1.25h2.4a1.16,1.16,0,0,0,1.15-1.15V47.83h2.09V46.58H89.39Zm-1.57-.52a16.34,16.34,0,0,1-2.4,3.55l-.21.21,1.15.73.1-.1a.36.36,0,0,0,.1-.21c.1-.1.21-.31.31-.42v4.8h1.57V48.56h-.52c.42-.73.84-1.46,1.25-2.3l.1-.31H87.82v.21Z" transform="translate(0.33 -0.36)"/><path class="cls-4" d="M45.21,61.1A3.9,3.9,0,0,0,42,59.53a3.07,3.07,0,0,0-3.34,3.13v.94c0,1.67,1.15,3,3.45,3A3.66,3.66,0,0,0,45.21,65l1.15.84A5.52,5.52,0,0,1,41.87,68c-3.24,0-5-2.09-5-4.49v-.94c0-2.4,2-4.6,5.12-4.6a5.31,5.31,0,0,1,4.39,2.19l-1.15.94ZM50,66.32h6.27v1.46H47.41v-.52l6.37-7.42H47.72V58.38h8.67v.52Zm13,1.46H58v-9.4h5c2.19,0,3.34.94,3.34,2.4V61a2,2,0,0,1-1.78,2.09,2.11,2.11,0,0,1,2,2v.21C66.41,66.73,65.16,67.78,63,67.78ZM64.64,61c0-.63-.42-1.25-1.57-1.25H59.63v2.72h3.24c1.15,0,1.67-.52,1.67-1.25V61Zm0,4c0-.73-.52-1.25-1.67-1.25H59.63v2.72h3.45c1.15,0,1.57-.52,1.57-1.25V65Zm11.07,2.82-1-2.3H70l-1,2.3H67.14l4.39-9.4H73l4.49,9.4Zm-3.45-7.52-1.78,3.86H74l-1.78-3.86Zm14,7.52-5.22-6L80.41,61v6.79H78.74v-9.4H80.3l5.12,6,.73.84V58.38h1.67v9.4Zm10.55,0-3.86-4.07L91.58,65v2.92H89.91v-9.4h1.67v4.7l5.12-4.7H98.9l-4.8,4.28C95,63.71,99,67.88,99,67.88H96.81Z" transform="translate(0.33 -0.36)"/></svg>