<svg id="图层_1" data-name="图层 1" xmlns="http://www.w3.org/2000/svg" viewBox="0 0 105.67 104.33"><defs><style>.cls-1{fill:#fff;}.cls-2{fill:#1d2a75;}.cls-3{fill:#5a9f6f;}.cls-4{fill:#231815;}</style></defs><title>mingSheng</title><path class="cls-1" d="M-.33.36H105.33V104.69H-.33Z" transform="translate(0.33 -0.36)"/><path class="cls-2" d="M25.15,53.64C23.52,51.5,18.93,51,18.93,51l1.84-1.12-4.08-2.24-4.08,2,3.26,1.84c5.3-.1,6.83,2.75,6.83,2.75,1.33,4.18-6.32,4.49-6.32,4.49A6.66,6.66,0,0,1,10,55.37l-2.65.1C10.47,61.79,21.79,59,21.79,59c5.91-1.84,3.36-5.4,3.36-5.4ZM16.69,51l-1.84-.92,1.73-1.22,1.84,1Z" transform="translate(0.33 -0.36)"/><path class="cls-3" d="M17,45.58c-3-.2-8.77.1-9.48,3.67-.61,2.85,3.67,4.49,6.73,4.79-.61.41-1.22.71-1.84,1.12,1.43.82,2.75,1.63,4.08,2.35l3.67-2.14-3.67-1.94a9.36,9.36,0,0,0-1.84.1c-2,0-5-2.24-4.18-4.28,1.53-4.38,11.62-3.77,12.64.61H26c-1.33-3.36-6.12-4.08-9-4.28Zm-.41,8.67,1.84,1-1.94,1-1.73-1Z" transform="translate(0.33 -0.36)"/><path class="cls-4" d="M34.16,46.6l.49.59,3.94.39c0,.39-.47,1-.77,1.67-.2.45,0,1.06-.16,1.33a13.75,13.75,0,0,0-2.92-.14c-.47.77-.08,2.65-.49,3.59-.12,0-.37.06-.51,0s-.1-.29-.18-.31a15,15,0,0,0,.12-2.14,2.58,2.58,0,0,0,0-.9,1.45,1.45,0,0,0-.2-.29l-3.45.8-.1-.1c.12-1,.61-1,.69-2.16l-.69-1c0-.1.06-.2.1-.29a16.73,16.73,0,0,0,1.94-.18,4.46,4.46,0,0,0,1.69-.31A2.65,2.65,0,0,0,34.16,46.6Zm12.11.31c1,.1,2,0,3,.12.35,0,.9,0,.94.29v.1c-.22.65-.24.67-.47,1.33-.24,1.47.16,3.57-.22,4.89h-.1a11.63,11.63,0,0,0-3.77-.57,20,20,0,0,0-4.22.27c0-.1-.06-.2-.1-.29a10,10,0,0,0,.06-1.16,15.21,15.21,0,0,0,.2-2.16,8.61,8.61,0,0,1,0-2.67c1.59-.08,3.14-.1,4.67-.14Zm10.15.1a17.57,17.57,0,0,0,4.42.1c0,.12-.06.27-.1.39-.92.35-.71,1-1.28,1.67a2.66,2.66,0,0,0-2,.2v.1l.39.31c.59.31,2.41-.29,3,.27.06.06,0,.2.08.29s-.14.16-.51.2c-.61,0-1.73,0-2,.24a3.71,3.71,0,0,0,1.77,1.84,8.79,8.79,0,0,0,1.35.14c.29.06.43.27.73.39a4.7,4.7,0,0,0-.29.39c-.33.06-.65.33-1,.37s-.53-.12-.82-.08a4.07,4.07,0,0,1-1.06-1,4.92,4.92,0,0,0-1-1.39c-.29.2-.35.51-.73.65-.73.27-1.86.31-2.59.61a8.36,8.36,0,0,0-1.41.9,2.66,2.66,0,0,1-.31-.2v-.1c0-.18,0-.37,0-.51.16-.37.51-.57.63-1a9.55,9.55,0,0,0-.06-4.42l.1-.1A5.42,5.42,0,0,0,56.43,47Zm21.08.1a2.28,2.28,0,0,1,.39.59h1.67v.39c-.22,0,0,.24-.29.29-.51.08-1.37-.08-1.9.06-.29.08-.35.37-.49.55,0,.1.06.2.1.31.53-.1,1.81-.43,2.37-.12.1.06,0,.22.1.33-.1,0-.16.22-.29.24s-.69,0-.94,0-.1.22-.16.31a4.7,4.7,0,0,1,.29.39h1a4.7,4.7,0,0,0-.29.39c-.63.08-.86.2-1.08.69,0,.2-.06.39-.1.59a1.45,1.45,0,0,1,.29.2c.2-.1.41-.41.61-.51s.24.06.39,0c-.1.1,0,.18-.06.29-.49.49-1.2,1.06-1.73,1.53-.12.12-.35.12-.47.24,0-.18-.06-.27,0-.41s.33-.49.43-.73a2.11,2.11,0,0,0,.06-1.59l-1,.1V51a1.89,1.89,0,0,0,.1-.2,1.55,1.55,0,0,0,1.18-.59,1,1,0,0,0-.31-.24c-.22-.06-.55,0-.65-.14s.12-.53-.08-.67-.37,0-.45-.06,0-.12-.06-.16a.9.9,0,0,1,.39-.59c.08-.1.06-.24.14-.35.24-.31.59-.55.86-.84ZM69,47.19c.06.1.2,0,.27.06.12.31.1.82.43,1,.65.31,2.12,0,2.88.33.14.06.08.27.18.37v.1c-.45,0-1,.08-1.57.08a4.27,4.27,0,0,0-1.65.08c-.2.1-.18.37-.22.63a1.45,1.45,0,0,0,.2.29,16.51,16.51,0,0,1,3.06.39c0,.12-.06.27-.1.39-1,0-2.28-.31-3.16.1v.59a5,5,0,0,0,.2.49,10,10,0,0,0,3.83.39,1.11,1.11,0,0,1-.59,1c-.51.29-1.2-.12-2.12-.39a7.56,7.56,0,0,0-2.12-.2l-3.83.49c0-.1-.06-.2-.1-.29v-.2L65,52.5a8,8,0,0,0,1.79-.18,5,5,0,0,0,1.86-.41c-.06-.33-.12-.65-.2-1-1.08,0-2.1.35-2.85,0,0-.1.06-.2.1-.29l.2-.2A5.65,5.65,0,0,0,68.54,50c.2-.2.16-.18.2-.59a1.45,1.45,0,0,0-.2-.29A8,8,0,0,0,65.4,50c-.24.12-.43,0-.71-.08v-.29a5.18,5.18,0,0,0,1.39-1.88,2.66,2.66,0,0,1,.31.2c.06.22.12.47.2.69a3.91,3.91,0,0,0,2.26-.59c0-.18-.06-.43,0-.61S69,47.32,69,47.19Zm20.29.1a2.56,2.56,0,0,1,1.67.29,1.45,1.45,0,0,1-.2.29l-2.06.88c-.1,0-.24,0-.37,0s-.2-.22-.33-.29v-.8a1.9,1.9,0,0,0,.1-.2A7.5,7.5,0,0,0,89.32,47.3Zm4.14,0a16.86,16.86,0,0,1,2,0,3,3,0,0,1,.94.39c0,.1-.06.2-.1.29l-.2.2a17.3,17.3,0,0,0-2.53,0,16.22,16.22,0,0,1-1.71.24c0-.1-.06-.2-.1-.29s.2-.33.29-.49.33-.16.53-.2.61-.06.88-.12Zm-49,.1c-.67.22-1.63,0-2.06.49-.27.29-.2,1.14-.22,2a9.66,9.66,0,0,0,.12,2.69,10.71,10.71,0,0,0,1.22-.35,10.7,10.7,0,0,1,2-.08,9.38,9.38,0,0,1,1.08,0l2.16.39.1-.1a1.45,1.45,0,0,0,.29-.2V50.11c0-.8.29-1.86-.2-2.57C47.44,47.54,45.93,47.46,44.42,47.4Zm37.21,0a5.2,5.2,0,0,1,2.57.29,11.63,11.63,0,0,0-.45,1.41c-.1.45,0,.94-.12,1.33a1.74,1.74,0,0,1-.51.8c.53,1.1,1.63,1.57,2.06,2.57-.33.06-.65.12-1,.2a1.87,1.87,0,0,1-.67-.55c-.16-.24-.18-.59-.33-.69s-.2.29-.43.22c-.57.16-1.16.16-1.69.29-.73.16-1.41.41-2.18.65a1.89,1.89,0,0,1-.1-.2c.43-.55,1.53-.75,1.39-1.57a10,10,0,0,0,.2-2.51,8.34,8.34,0,0,1-.08-1.81c0-.16.2-.2.27-.31a1.13,1.13,0,0,0,1.06-.1Zm-24.33.18a6.81,6.81,0,0,1-1.43.16,3.48,3.48,0,0,0-1.24.45v.1c.08.45.08.35.29.59,1.22-.39,3-.06,4.42-.39V48a1.45,1.45,0,0,0-.2-.29C58.57,47.62,57.94,47.64,57.31,47.58Zm-22.45.31c-.1.2-.2.39-.29.59v.8c.14.18,0,.06.2.2.84.65,3.24.14,2.37-1.39l-2.28-.2Zm-1.77.1-1.47.49c-.2.37-.49.69-.29,1.18a1.45,1.45,0,0,0,.2.29,5,5,0,0,0,2.26-.59c.06-.33.12-.65.2-1a1.45,1.45,0,0,0-.2-.29l-.71-.1Zm49.14.1c-.24.1-.57.1-.82.18s-.29.24-.45.31c0,.16.06.33.1.49a4.54,4.54,0,0,0,2.37-.29V48.4l-.29-.29C82.82,48.09,82.53,48.09,82.23,48.09Zm-37.62.1c1.2,0,3.08-.2,3.83.29a1.89,1.89,0,0,0,.2.1l-.29.29a5.47,5.47,0,0,0-1.33-.1,4.34,4.34,0,0,0-1.24.1v.49H46c.8.1,1.57.2,2.37.29v.31c-.57.14-.86.14-1.18.49l.2.2c.27.29.88.37,1.18.59a1.45,1.45,0,0,1-.2.29,25.16,25.16,0,0,0-5.42.1c-.08-.35-.1-.33.1-.59a4,4,0,0,0,2.16-.49A5,5,0,0,0,45,50c-.84.06-1.79.45-2.06-.2h.2c.55-.27,1.55-.27,2-.69,0-.12-.06-.27-.1-.39l-2.06.1a1.89,1.89,0,0,1-.1-.2,1.89,1.89,0,0,0,.1-.2,3,3,0,0,0,1.65-.27Zm11.44,1c-.33.06-.65.12-1,.2-.16.27,0,.14-.29.29,0,.12.06.27.1.39a.83.83,0,0,0,.29.31c.57-.14,1.61-.29,2-.69-.1-.16-.2-.33-.29-.49Zm34.46,0c.2.14.16.1.29.29a5.66,5.66,0,0,0-.57,1c-.16.47-.16,1.08-.35,1.55a2.75,2.75,0,0,1-1.06,1.24c-.49-.14-.63-.2-.8-.69a1.74,1.74,0,0,0,1.57-2.47L88,50.52v-.69a1.9,1.9,0,0,0,.1-.2C88.94,49.5,89.73,49.34,90.51,49.17Zm2.47,0c1.16.06,3.73-.06,3.75.39s-.37.59-.65.65a6.55,6.55,0,0,0-1.61.14c-.14,1.06.47,3.41-.29,3.75.2,0-.08,0-.2-.14-.29-1.41.24-2.94-.35-3.89,0,0-.2-.12-.24-.12-.67.12-1.12.43-1.77.31a1.25,1.25,0,0,1-.1-.59c.31-.41,1-.33,1.47-.49Zm-10.54.29c-.57.22-1.12.14-1.47.59,0,.16-.06.33-.1.49h.2a3.48,3.48,0,0,0,2.06-.29v-.1c-.12-.39-.08-.41-.39-.59a1.79,1.79,0,0,1-.31-.1ZM46,50c-.35.71.18,1.08.88.69v-.1a5,5,0,0,0-.2-.49A6.65,6.65,0,0,0,46,50Zm11.24.39-2.37.49c-.1.2-.2.39-.29.59s.06.33.1.49l3.16-.59c.2-.18.1,0,.2-.39a4.7,4.7,0,0,1-.29-.39l-.53-.2Zm24.12.59c-.22.2-.47.39-.69.59,0,.73,0,.84.39,1.14.06-.06.12,0,.2-.06.45-.24.57-.61.8-1.08-.06-.2-.12-.39-.2-.59h-.49Zm1.08.69-.39.49c0,.16.06.33.1.49l.8-.1a1.9,1.9,0,0,0,.1-.2c-.06-.2-.12-.39-.2-.59l-.41-.08Zm-51,6.12.06,0-.12.63a3.07,3.07,0,0,1-.53.24,1.37,1.37,0,0,1-.49.08.81.81,0,0,1-.41-.08.62.62,0,0,1-.24-.27,1,1,0,0,1-.08-.43,1.4,1.4,0,0,1,.1-.49,1.82,1.82,0,0,1,.27-.47,2.29,2.29,0,0,1,.37-.41,2.07,2.07,0,0,1,.53-.33,1.35,1.35,0,0,1,.55-.12.83.83,0,0,1,.39.08.67.67,0,0,1,.31.22l-.47.73,0,0a1.82,1.82,0,0,0,.08-.67.25.25,0,0,0-.27-.2.8.8,0,0,0-.57.33,2.89,2.89,0,0,0-.51.86,1.74,1.74,0,0,0-.14.77c0,.2.14.29.31.29a.66.66,0,0,0,.43-.18,1.47,1.47,0,0,0,.49-.55Zm.14.88,0-.06a.68.68,0,0,0,.27-.22,2.75,2.75,0,0,0,.29-.63l.06-.14.41-1a.74.74,0,0,0,.06-.22s0-.06-.06-.08l0,0a.92.92,0,0,1,.27,0h.33a1.46,1.46,0,0,0,.27,0l0,0a.19.19,0,0,0-.12.08.58.58,0,0,0-.1.22l-.29.73h.73l.29-.73a.87.87,0,0,0,.06-.2s0-.06-.06-.08l0,0a.92.92,0,0,1,.27,0h.33a1.46,1.46,0,0,0,.27,0l0,0a.19.19,0,0,0-.12.08.58.58,0,0,0-.1.22l-.45,1.14a4.91,4.91,0,0,0-.22.67.32.32,0,0,0,.06.24l0,.06a1,1,0,0,1-.24,0h-.53a1,1,0,0,0-.24,0l0-.06a.75.75,0,0,0,.27-.24,2.69,2.69,0,0,0,.31-.67l0-.1.06-.16H32.9l-.12.31a4,4,0,0,0-.2.63.21.21,0,0,0,.08.22l0,.06a1,1,0,0,1-.24,0h-.86Zm2.69,0,0-.06a.68.68,0,0,0,.27-.22,2.75,2.75,0,0,0,.29-.63l.06-.14.41-1a.74.74,0,0,0,.06-.22s0-.06-.06-.08l0,0a.92.92,0,0,1,.27,0h.33a1.46,1.46,0,0,0,.27,0l0,0a.19.19,0,0,0-.12.08.58.58,0,0,0-.1.22l-.47,1.18a4,4,0,0,0-.2.63.21.21,0,0,0,.08.22l0,.06a1,1,0,0,1-.24,0h-.53A1.79,1.79,0,0,1,34.23,58.63Zm2.45-1.92-.31.77a2.82,2.82,0,0,0-.24.82.31.31,0,0,0,.14.29l0,.06a.56.56,0,0,1-.18,0h-.43a.76.76,0,0,0-.2,0l0-.06a.78.78,0,0,0,.37-.27,3.83,3.83,0,0,0,.39-.82l.31-.8a1,1,0,0,0,.08-.33.24.24,0,0,0-.14-.14l0,0h.75l.49,1.39.1-.24a2.82,2.82,0,0,0,.24-.82.26.26,0,0,0-.14-.27l0-.06h.8l0,.06a.78.78,0,0,0-.37.27,4.43,4.43,0,0,0-.39.82l-.55,1.37h-.08l-.65-2Zm2.75.8,0-.55-.43.55Zm-1.67,1.12,0-.06c.16,0,.41-.29.75-.69l.06-.06L40,56.13h0l.08,2.1a.84.84,0,0,0,0,.29.19.19,0,0,0,.12.08l0,.06h0l-.47,0c-.12,0-.31,0-.57,0H39.1l0-.06a.19.19,0,0,0,.14-.06.37.37,0,0,0,.1-.14.18.18,0,0,0,0-.1s0-.08,0-.14l0-.49h-.51c-.12.16-.22.29-.29.39a1.15,1.15,0,0,0-.14.27.25.25,0,0,0,0,.2.14.14,0,0,0,.1.08l0,.06H38a.76.76,0,0,0-.22,0Zm3.32,0,0-.06a.94.94,0,0,0,.37-.27,3.83,3.83,0,0,0,.39-.82l.31-.8a1,1,0,0,0,.08-.33.24.24,0,0,0-.14-.14l0,0H43l-.1,1.39,1-1.39h.27a3.82,3.82,0,0,0,.43,0h0l0,.06a.19.19,0,0,0-.12.08.58.58,0,0,0-.1.22l-.45,1.14a4.91,4.91,0,0,0-.22.67.26.26,0,0,0,.08.24l0,.06a1,1,0,0,1-.24,0H43a1,1,0,0,0-.24,0l0-.06a.75.75,0,0,0,.27-.24,2.69,2.69,0,0,0,.31-.67l0-.1.35-.88-1.47,2h0l.1-1.92-.29.73a3,3,0,0,0-.24.82.31.31,0,0,0,.14.29l0,.06a.56.56,0,0,1-.18,0h-.65Zm3,0,0-.06a.68.68,0,0,0,.27-.22,2.75,2.75,0,0,0,.29-.63l.06-.14.41-1a.74.74,0,0,0,.06-.22s0-.06-.06-.08l0,0a.92.92,0,0,1,.27,0h.33a1.46,1.46,0,0,0,.27,0l0,0a.19.19,0,0,0-.12.08.58.58,0,0,0-.1.22l-.47,1.18a4,4,0,0,0-.2.63.21.21,0,0,0,.08.22l0,.06a1,1,0,0,1-.24,0h-.53a1.55,1.55,0,0,1-.29,0Zm2.47-1.92-.31.77a2.82,2.82,0,0,0-.24.82.31.31,0,0,0,.14.29l0,.06a.56.56,0,0,1-.18,0h-.43a.76.76,0,0,0-.2,0l0-.06a.78.78,0,0,0,.37-.27,3.83,3.83,0,0,0,.39-.82l.31-.8a1,1,0,0,0,.08-.33.24.24,0,0,0-.14-.14l0,0h.75l.49,1.39.1-.24a2.82,2.82,0,0,0,.24-.82.26.26,0,0,0-.14-.27l0-.06h.8l0,.06a.78.78,0,0,0-.37.27,4.43,4.43,0,0,0-.39.82l-.55,1.37h-.08l-.65-2Zm1.39,1.71.45-.67,0,0a.84.84,0,0,0,0,.55.31.31,0,0,0,.31.2.66.66,0,0,0,.37-.12.76.76,0,0,0,.27-.35.36.36,0,0,0,0-.29.4.4,0,0,0-.22-.16l-.1,0a.74.74,0,0,1-.41-.2.34.34,0,0,1-.06-.2.8.8,0,0,1,.06-.29,1.15,1.15,0,0,1,.47-.57,1.37,1.37,0,0,1,.75-.22,1,1,0,0,1,.35.06,1,1,0,0,1,.33.16l-.41.59h0a.75.75,0,0,0,0-.47.27.27,0,0,0-.29-.18.49.49,0,0,0-.31.12.57.57,0,0,0-.2.29.36.36,0,0,0,0,.24c0,.06.14.1.31.16s.39.14.43.27a.56.56,0,0,1,0,.47,1.16,1.16,0,0,1-.51.61,1.41,1.41,0,0,1-.82.22,1.49,1.49,0,0,1-.45-.06.69.69,0,0,1-.29-.16Zm2.18.2,0-.06a.68.68,0,0,0,.27-.22,2.75,2.75,0,0,0,.29-.63l.06-.14.41-1a.74.74,0,0,0,.06-.22s0-.06-.06-.08l0,0a.92.92,0,0,1,.27,0h.33a1.46,1.46,0,0,0,.27,0l0,0a.19.19,0,0,0-.12.08.58.58,0,0,0-.1.22l-.29.73h.73l.29-.73a.87.87,0,0,0,.06-.2s0-.06-.06-.08l0,0a.92.92,0,0,1,.27,0h.33a1.46,1.46,0,0,0,.27,0l0,0a.19.19,0,0,0-.12.08.58.58,0,0,0-.1.22l-.45,1.14a4.91,4.91,0,0,0-.22.67.32.32,0,0,0,.06.24l0,.06a1,1,0,0,1-.24,0h-.53a1,1,0,0,0-.24,0l0-.06a.75.75,0,0,0,.27-.24,2.69,2.69,0,0,0,.31-.67l0-.1.06-.16h-.71l-.12.31a4,4,0,0,0-.2.63.21.21,0,0,0,.08.22l0,.06a1,1,0,0,1-.24,0h-.86Zm2.69,0,0-.06a.52.52,0,0,0,.24-.22,2.67,2.67,0,0,0,.24-.49l.53-1.33a.74.74,0,0,0,.06-.22s0-.06-.06-.08l0,0a2.6,2.6,0,0,1,.41,0h1.22l-.12.65h-.06a1.1,1.1,0,0,0-.27-.43.65.65,0,0,0-.41-.12h-.1l-.39,1h.12a.86.86,0,0,0,.41-.1.74.74,0,0,0,.31-.31H55l-.37.92H54.6a.35.35,0,0,0-.08-.31.48.48,0,0,0-.33-.1h-.12l-.22.57a.86.86,0,0,0-.08.39c0,.08.08.12.2.12a1,1,0,0,0,.49-.18,5.31,5.31,0,0,0,.65-.51l0,0-.51.82H53.29a2.07,2.07,0,0,1-.51,0Zm3.41-1.92-.31.77a2.82,2.82,0,0,0-.24.82.31.31,0,0,0,.14.29l0,.06a.56.56,0,0,1-.18,0h-.43a.76.76,0,0,0-.2,0l0-.06a.78.78,0,0,0,.37-.27,3.83,3.83,0,0,0,.39-.82l.31-.8a1,1,0,0,0,.08-.33.24.24,0,0,0-.14-.14l0,0h.75l.49,1.39.1-.24a2.82,2.82,0,0,0,.24-.82.26.26,0,0,0-.14-.27l0-.06h.8l0,.06a.78.78,0,0,0-.37.27,4.43,4.43,0,0,0-.39.82l-.55,1.37h-.08Zm4.14.65,0,0a.38.38,0,0,0-.22.18,3.15,3.15,0,0,0-.27.57l0,.1,0,.12a3.25,3.25,0,0,1-.55.24,1.68,1.68,0,0,1-.53.08.81.81,0,0,1-.41-.08.62.62,0,0,1-.24-.27,1,1,0,0,1-.08-.43,1.4,1.4,0,0,1,.1-.49,1.54,1.54,0,0,1,.27-.47,2.29,2.29,0,0,1,.37-.41,2.07,2.07,0,0,1,.53-.33,1.35,1.35,0,0,1,.55-.12,1.31,1.31,0,0,1,.41.06,1.19,1.19,0,0,1,.37.22l-.43.65,0,0a1,1,0,0,0,0-.59.29.29,0,0,0-.29-.2.8.8,0,0,0-.57.31,2.44,2.44,0,0,0-.51.86,1.8,1.8,0,0,0-.18.82c0,.18.1.29.27.29a.49.49,0,0,0,.31-.12,1,1,0,0,0,.22-.37,1.55,1.55,0,0,0,.14-.49c0-.08,0-.12-.14-.16l0,0h.75a.48.48,0,0,0,.24,0Zm2-.14h.18a.55.55,0,0,0,.35-.12.89.89,0,0,0,.24-.35c.06-.14.08-.27,0-.33a.3.3,0,0,0-.27-.1h-.2l-.35.9ZM61,58.63l0-.06a.68.68,0,0,0,.27-.22,2.75,2.75,0,0,0,.29-.63l.06-.14.41-1a.74.74,0,0,0,.06-.22s0-.06-.06-.08l0,0a1.25,1.25,0,0,1,.29,0h.77a.89.89,0,0,1,.61.14c.1.08.12.22,0,.41a.75.75,0,0,1-.29.37,1.25,1.25,0,0,1-.53.18.69.69,0,0,1,.49.2.44.44,0,0,1,0,.43,1,1,0,0,1-.45.53,1.53,1.53,0,0,1-.8.18h-.94a1.25,1.25,0,0,0-.29,0Zm1.31-1.24L62,58.1a.7.7,0,0,0-.08.33s.06.06.16.06a.59.59,0,0,0,.41-.14.91.91,0,0,0,.29-.41.59.59,0,0,0,.06-.43c0-.08-.14-.14-.33-.14h-.16a.07.07,0,0,1-.06,0Zm2.65.12,0-.55-.43.55Zm-1.67,1.12,0-.06c.16,0,.41-.29.75-.69l.06-.06,1.39-1.69h0l.08,2.1a.84.84,0,0,0,0,.29.19.19,0,0,0,.12.08l0,.06h0l-.47,0c-.12,0-.31,0-.57,0h-.06l0-.06a.19.19,0,0,0,.14-.06.37.37,0,0,0,.1-.14.18.18,0,0,0,0-.1s0-.08,0-.14l0-.49H64.4c-.12.16-.22.29-.29.39a1.15,1.15,0,0,0-.14.27.25.25,0,0,0,0,.2.14.14,0,0,0,.1.08l0,.06h-.57A.76.76,0,0,0,63.24,58.63ZM67,56.72l-.31.77a2.82,2.82,0,0,0-.24.82.31.31,0,0,0,.14.29l0,.06a.56.56,0,0,1-.18,0h-.43a.76.76,0,0,0-.2,0l0-.06a.78.78,0,0,0,.37-.27,3.83,3.83,0,0,0,.39-.82l.31-.8a1,1,0,0,0,.08-.33.24.24,0,0,0-.14-.14l0,0h.73L68,57.59l.1-.24a2.82,2.82,0,0,0,.24-.82.26.26,0,0,0-.14-.27l0-.06H69l0,.06a.78.78,0,0,0-.37.27,4.43,4.43,0,0,0-.39.82l-.55,1.37h-.08Zm1.35,1.86a.68.68,0,0,0,.27-.22,2.75,2.75,0,0,0,.29-.63l.06-.14.41-1a.74.74,0,0,0,.06-.22s0-.06-.06-.08l0,0a.92.92,0,0,1,.27,0h.33a1.46,1.46,0,0,0,.27,0l0,0a.19.19,0,0,0-.12.08.58.58,0,0,0-.1.22l-.29.71.59-.47a1.16,1.16,0,0,0,.22-.2c0-.06.08-.1.1-.14a.36.36,0,0,0,0-.12.09.09,0,0,0-.1-.06l0,0h0l.39,0h.16a1.17,1.17,0,0,0,.24,0l0,0a5.5,5.5,0,0,0-.84.55l0,0-.67.51H70a.45.45,0,0,1,.18,0,.17.17,0,0,1,.12,0,.47.47,0,0,1,.16.43v0l0,.35a1,1,0,0,0,0,.33c0,.06.06.08.12.1l0,0a.56.56,0,0,1-.18,0H70a.63.63,0,0,0-.2,0l.06-.86v-.06c0-.18,0-.29-.08-.29a.11.11,0,0,0-.1.06l-.12.24-.08.18a1.24,1.24,0,0,0-.12.45.25.25,0,0,0,.08.22l0,.06a1,1,0,0,1-.24,0h-.53a1,1,0,0,0-.24,0l0-.12Zm2.43.06,0-.06a.68.68,0,0,0,.27-.22,2.75,2.75,0,0,0,.29-.63l.06-.14.41-1a.74.74,0,0,0,.06-.22s0-.06-.06-.08l0,0a.92.92,0,0,1,.27,0h.33a1.46,1.46,0,0,0,.27,0l0,0a.19.19,0,0,0-.12.08.58.58,0,0,0-.1.22l-.47,1.18a4,4,0,0,0-.2.63.21.21,0,0,0,.08.22l0,.06a1,1,0,0,1-.24,0H71a1.55,1.55,0,0,1-.29,0Zm2.45-1.92-.31.77a2.82,2.82,0,0,0-.24.82.31.31,0,0,0,.14.29l0,.06a.56.56,0,0,1-.18,0h-.43a.76.76,0,0,0-.2,0l0-.06a.78.78,0,0,0,.37-.27,3.83,3.83,0,0,0,.39-.82l.31-.8a1,1,0,0,0,.08-.33.24.24,0,0,0-.14-.14l0,0h.75l.49,1.39.1-.24a2.82,2.82,0,0,0,.24-.82.26.26,0,0,0-.14-.27l0-.06h.8l0,.06a.78.78,0,0,0-.37.27,4.43,4.43,0,0,0-.39.82l-.55,1.37h0Zm4.14.65,0,0a.38.38,0,0,0-.22.18,3.15,3.15,0,0,0-.27.57l0,.1,0,.12a3.25,3.25,0,0,1-.55.24,1.68,1.68,0,0,1-.53.08.81.81,0,0,1-.41-.08.62.62,0,0,1-.24-.27,1,1,0,0,1-.08-.43,1.4,1.4,0,0,1,.1-.49,1.54,1.54,0,0,1,.27-.47,2.29,2.29,0,0,1,.37-.41,1.77,1.77,0,0,1,.53-.33,1.35,1.35,0,0,1,.55-.12,1.31,1.31,0,0,1,.41.06,1.19,1.19,0,0,1,.37.22l-.43.65,0,0a1,1,0,0,0,0-.59.29.29,0,0,0-.29-.2.8.8,0,0,0-.57.31,2.44,2.44,0,0,0-.51.86,1.8,1.8,0,0,0-.18.82c0,.18.1.29.27.29a.49.49,0,0,0,.31-.12,1,1,0,0,0,.22-.37,1.55,1.55,0,0,0,.14-.49c0-.08,0-.12-.14-.16l0,0h.75a.48.48,0,0,0,.24,0Zm2.85.39.06,0-.12.63a3.07,3.07,0,0,1-.53.24,1.37,1.37,0,0,1-.49.08.81.81,0,0,1-.41-.08.62.62,0,0,1-.24-.27,1,1,0,0,1-.08-.43,1.4,1.4,0,0,1,.1-.49,1.82,1.82,0,0,1,.27-.47,2.29,2.29,0,0,1,.37-.41,2.07,2.07,0,0,1,.53-.33,1.35,1.35,0,0,1,.55-.12.78.78,0,0,1,.39.08.67.67,0,0,1,.31.22l-.47.73,0,0a1.82,1.82,0,0,0,.08-.67.25.25,0,0,0-.27-.2.8.8,0,0,0-.57.33,2.89,2.89,0,0,0-.51.86,1.74,1.74,0,0,0-.14.77c0,.2.14.29.31.29a.66.66,0,0,0,.43-.18,1.32,1.32,0,0,0,.49-.55Zm1.39.82a.7.7,0,0,0,.49-.29,2.86,2.86,0,0,0,.47-.88,2.37,2.37,0,0,0,.22-.88.25.25,0,0,0-.27-.29.7.7,0,0,0-.49.29,3.07,3.07,0,0,0-.47.88,2.46,2.46,0,0,0-.22.88C81.29,58.47,81.37,58.57,81.55,58.57Zm-.69-1.16a2.75,2.75,0,0,1,.31-.53,2.13,2.13,0,0,1,.43-.43,2.44,2.44,0,0,1,.45-.24,1.26,1.26,0,0,1,.47-.08.86.86,0,0,1,.41.08.76.76,0,0,1,.27.24.74.74,0,0,1,.1.43,1.24,1.24,0,0,1-.12.51,2.32,2.32,0,0,1-.2.39,2.35,2.35,0,0,1-.29.35,2.11,2.11,0,0,1-.57.41,1.32,1.32,0,0,1-.59.14.86.86,0,0,1-.41-.08.56.56,0,0,1-.27-.27,1,1,0,0,1-.1-.43,1.23,1.23,0,0,1,.12-.49ZM83,58.63l0-.06a.68.68,0,0,0,.27-.22,2.75,2.75,0,0,0,.29-.63l.06-.14.41-1a.74.74,0,0,0,.06-.22s0-.06-.06-.08l0-.06H85a1.32,1.32,0,0,1,.75.14c.12.1.14.24.06.45a.75.75,0,0,1-.33.39,1.66,1.66,0,0,1-.61.2.54.54,0,0,1,.31.14.52.52,0,0,1,.1.33,1,1,0,0,1,0,.22c0,.33,0,.49.14.51l0,0h-.84a1.33,1.33,0,0,1,0-.22c.1-.65,0-1-.16-1h-.08l-.1.29a2.85,2.85,0,0,0-.2.63.21.21,0,0,0,.08.22l0,.06a1,1,0,0,1-.24,0h-.53A.55.55,0,0,1,83,58.63Zm1.37-1.37h.14a.7.7,0,0,0,.37-.1.83.83,0,0,0,.24-.37c.06-.16.08-.27,0-.35a.25.25,0,0,0-.24-.12h-.18Zm2.41.06a.15.15,0,0,0,.08,0H87a.48.48,0,0,0,.35-.14,1.09,1.09,0,0,0,.27-.39.55.55,0,0,0,0-.39c0-.08-.14-.12-.29-.12H87.2l-.39,1Zm-1.33,1.31,0-.06a.68.68,0,0,0,.27-.22,2.75,2.75,0,0,0,.29-.63l.06-.14.41-1a.74.74,0,0,0,.06-.22s0-.06-.06-.08l0,0a1.35,1.35,0,0,1,.29,0h.61a1.24,1.24,0,0,1,.73.14c.12.1.14.27,0,.49a.94.94,0,0,1-.45.49,1.53,1.53,0,0,1-.75.18H86.9l-.14,0-.1.24a2.85,2.85,0,0,0-.2.63.21.21,0,0,0,.08.22l0,.06a1,1,0,0,1-.24,0h-.77Zm1.86-.27a.52.52,0,0,1,.16-.2.34.34,0,0,1,.22-.08.17.17,0,0,1,.16.08.18.18,0,0,1,0,.2.41.41,0,0,1-.16.2.38.38,0,0,1-.22.08.19.19,0,0,1-.16-.08S87.32,58.45,87.34,58.37Zm1.14.8,0-.06.2-.22a.76.76,0,0,0,.12-.2.2.2,0,0,1-.18-.08.33.33,0,0,1,0-.2.46.46,0,0,1,.16-.22.31.31,0,0,1,.22-.08.19.19,0,0,1,.18.1.39.39,0,0,1,0,.29,1,1,0,0,1-.22.33,2.45,2.45,0,0,1-.41.37Zm1.16-.53,0-.06a.52.52,0,0,0,.24-.22,2.67,2.67,0,0,0,.24-.49l.53-1.33a.74.74,0,0,0,.06-.22s0-.06-.06-.08l0,0a.92.92,0,0,1,.27,0h.33a1.46,1.46,0,0,0,.27,0l0,0a.19.19,0,0,0-.12.08.58.58,0,0,0-.1.22L90.75,58a.86.86,0,0,0-.08.39.16.16,0,0,0,.18.12.87.87,0,0,0,.45-.18,4,4,0,0,0,.61-.51l0,0-.49.82H89.65Zm2.35,0,0-.06a.68.68,0,0,0,.27-.22,2.75,2.75,0,0,0,.29-.63l.06-.14.43-1.1a.22.22,0,0,0,0-.1s0,0,0,0a.6.6,0,0,0-.33.14,5.7,5.7,0,0,0-.49.39h-.06l.41-.69h1.79l-.14.69h-.06a1.14,1.14,0,0,0-.18-.39c-.08-.1-.14-.14-.22-.14a.07.07,0,0,0-.06,0s0,0,0,.1l0,.1-.45,1.16a4,4,0,0,0-.2.63.21.21,0,0,0,.08.22l0,.06a1,1,0,0,1-.24,0H92Zm3.53-2.3L94.87,58a.93.93,0,0,0-.12.45c0,.06.06.1.14.1a.73.73,0,0,0,.53-.29,2.83,2.83,0,0,0,.47-.84,2,2,0,0,0,.18-.82.3.3,0,0,0-.33-.27h-.1a.26.26,0,0,1-.12,0Zm-1.73,2.3,0-.06a.75.75,0,0,0,.27-.24,2.69,2.69,0,0,0,.31-.67l0-.1.41-1a.87.87,0,0,0,.06-.2s0-.06-.06-.08l0,0a1.16,1.16,0,0,1,.27,0h.73a.8.8,0,0,1,.75.31,1,1,0,0,1,0,.86,2.26,2.26,0,0,1-.67,1,1.52,1.52,0,0,1-1,.33,1.39,1.39,0,0,1-.24,0l-.29,0h-.18l-.43,0Zm2.63-.27a.52.52,0,0,1,.16-.2.34.34,0,0,1,.22-.08.17.17,0,0,1,.16.08.18.18,0,0,1,0,.2.41.41,0,0,1-.16.2.38.38,0,0,1-.22.08.19.19,0,0,1-.16-.08A.18.18,0,0,1,96.42,58.37Z" transform="translate(0.33 -0.36)"/></svg>