<svg id="图层_1" data-name="图层 1" xmlns="http://www.w3.org/2000/svg" xmlns:xlink="http://www.w3.org/1999/xlink" viewBox="0 0 99.43 61.02"><defs><style>.cls-1{fill:#0460a9;}.cls-2{fill:url(#未命名的渐变_3);}</style><linearGradient id="未命名的渐变_3" x1="99.14" y1="29.57" x2="120.21" y2="29.57" gradientTransform="matrix(1, 0, 0, -1, -56.72, 67.52)" gradientUnits="userSpaceOnUse"><stop offset="0.3" stop-color="#e74a21"/><stop offset="0.7" stop-color="#ec9a1e"/></linearGradient></defs><title>NH LOGO</title><path id="_Compound_Path_" data-name=" Compound Path " class="cls-1" d="M13.73,85.7,5.56,75v9.65l1.67.4v.44H3.43V85l1.36-.4V74.13a2.89,2.89,0,0,0-1.16-.67l-.39-.08v-.44H6.46l7,9.22V73.8l-1.67-.41v-.44h3.8v.44l-1.36.41v9.57c0,.89.06,2.18.07,2.34Zm17.08-6.81c0,4.43-3.05,7-6.39,7a6.67,6.67,0,0,1,0-13.34,6.26,6.26,0,0,1,6.42,6.1q0,.12,0,.24Zm-2.12.66c0-3.26-1.92-6.42-4.53-6.42-2.77,0-4,2.73-4,5.64s1.58,6.53,4.56,6.53C27.49,85.3,28.68,82.42,28.68,79.55Zm4.76-5.76-1.31-.41v-.44h5v.44l-1.57.41L39,83.37h0l3.46-9.58-1.57-.41v-.44h3.71v.44l-1.31.41L39,85.73H37.88Zm29.61,5.29h-.79V73.6c2.62,0,4.17.61,4.17,2.78C66.42,78,65.06,79.08,63.05,79.08Zm22.42,6,1.74-.4V73.79l-1.74-.41v-.44h5.44v.44l-1.74.41V84.64l1.74.4v.44H85.47Zm8.77-3h.34l1.16,2.7a5.11,5.11,0,0,0,2.21.56,2.6,2.6,0,0,0,2.87-2.47c0-1.21-.77-1.92-2-2.58l-1.23-.65c-1.47-.78-2.94-1.87-2.94-3.64,0-1.92,1.31-3.41,4.11-3.41a9.51,9.51,0,0,1,2.9.48l.29,2.91h-.37l-1.07-2.33a3.66,3.66,0,0,0-1.81-.48,2.16,2.16,0,0,0-2.38,2.11c0,1.11.73,1.81,2,2.47l1.46.77c2,1,2.93,2,2.93,3.81,0,2.22-2,3.59-4.59,3.59a10.78,10.78,0,0,1-3.53-.54ZM43.83,85l1.4-.4,4.32-11.71L51,72.56l4.46,12.08,1.4.41v.44H51.56V85l1.79-.41-1.26-3.47H47.34l-1.26,3.47,1.79.4v.44h-4Zm3.84-4.81h4.11l-2-5.6h0Zm17.88-.89c.44-.11,2.88-.74,2.88-3.1,0-1.89-1.43-3.36-4.94-3.36-2.18,0-4.36,0-4.64.06v.44l1.43.41V84.64L58.85,85v.44h5.08V85l-1.67-.41v-4.9H63.7l3.67,5.76h3.25v-.44L69,84.61Zm10.72-5.76V84.64l-1.74.4v.44H80V85l-1.74-.4v-11h2.93l1,2.12h.37L82.21,73H72.27L72,75.71h.37l1-2.1Z" transform="translate(-3.24 -24.87)"/><path id="_Path_" data-name=" Path " class="cls-2" d="M57,35.54l-.06.15A6,6,0,0,1,60.1,41.3,6.78,6.78,0,0,1,53,47.85c-5.37,0-7.22-3.14-7.22-6,0-3.7,2.58-6.16,2.58-9.53a5.26,5.26,0,0,0-4.15-5.08l-.09.15a4.36,4.36,0,0,1,1.32,3.16c0,3.64-3.07,6.22-3.07,10.4,0,3.84,2.69,7.76,10.47,7.76,6.94,0,10.59-3.4,10.59-7C63.48,38.57,61.26,35.95,57,35.54Z" transform="translate(-3.24 -24.87)"/><path id="_Compound_Path_2" data-name=" Compound Path " class="cls-1" d="M53,43.47l2-18.6H50.87l2,18.6Z" transform="translate(-3.24 -24.87)"/></svg>