<svg id="图层_1" data-name="图层 1" xmlns="http://www.w3.org/2000/svg" viewBox="0 0 105.72 105.72"><defs><style>.cls-1{fill:#fff;}.cls-2{fill:#040000;}</style></defs><title>pC</title><path class="cls-1" d="M-.72-.72H105V105H-.72Z" transform="translate(0.72 0.72)"/><path class="cls-2" d="M17,56.77a7.14,7.14,0,0,0,0-14.29,6.94,6.94,0,0,0-1.42.15V47a2.45,2.45,0,0,1,0,4.73v4.84a6.85,6.85,0,0,0,1.42.15ZM7.5,42.17A1.51,1.51,0,0,0,6,43.68V59.88a1.5,1.5,0,0,0,1.5,1.5h5.41a1.5,1.5,0,0,0,1.5-1.5h0V52a2.45,2.45,0,1,1,0-4.84V43.68a1.5,1.5,0,0,0-1.5-1.5H7.5Zm5.75,7.36a1.53,1.53,0,0,0,3.06.06s0,0,0-.06a1.53,1.53,0,0,0-3.06,0Zm-7.8-9.16H25.52A1.51,1.51,0,0,1,27,41.88V62a1.5,1.5,0,0,1-1.5,1.5H5.45A1.5,1.5,0,0,1,3.94,62h0V41.88a1.5,1.5,0,0,1,1.5-1.51h0ZM38.24,60.09a5.06,5.06,0,0,1-2.86.95,2.54,2.54,0,0,1-2.78-2.65,2.5,2.5,0,0,1,2.75-2.65,4.62,4.62,0,0,1,2.8,1V53.59a7.38,7.38,0,0,0-3.34-.73,5.28,5.28,0,0,0-5.59,5.57c0,2.46,1.39,5.47,5.42,5.47a6.78,6.78,0,0,0,3.6-.95V60.09h0Zm12.46,3.65H54.2l0-5.52,4.34,5.52h3.19V53h-3.5v4.89l-4-4.89H50.71V63.74h0Zm6.73-12.3h9.85V49.17H62.14v-2h4.77V44.85H62.14V43h5.09V40.69h-9.6l-.62,0c-3.52,0-5.14,2.61-5.14,5.4s1.73,5.4,5.14,5.4h.43Zm-2.26-5.39c0-1.42.69-2.31,1.83-2.31s1.83.9,1.83,2.31-.71,2.31-1.83,2.31S55.19,47.48,55.19,46.06Zm32.75,5.39h3.73L93.94,48l2.17,3.41h4.22L96.1,45.77l4-5.08H96.34l-2.07,3.19-2-3.19H88.09l4,5.42-4.16,5.33Zm-5,0h4.09V40.69H83Zm-14,0H72.9l0-5.52,4.89,5.52h3.6V40.69H77.47v4.89L73,40.69H69V51.44Zm-29.11,0h3.92V47.37H47v4.07h3.92V40.69H47V44.6H43.78V40.69H39.86Zm-9.57,0h3.39V47.61h1.42c3.06,0,4-1.86,4-3.53s-1-3.39-3.84-3.39h-5V51.44h0Zm3.39-5.84V42.69h.82c1.09,0,1.5.5,1.5,1.44a1.31,1.31,0,0,1-1.49,1.48Zm60.26,10.1v8.06h3.39V55.71h3V53H89.28l0,.05A12.79,12.79,0,0,0,87.93,53c-3.54,0-5.6,2.3-5.6,5.44,0,2.46,1.39,5.47,5.42,5.47a6.78,6.78,0,0,0,3.6-.95V60.09a5.06,5.06,0,0,1-2.86.95,2.67,2.67,0,1,1,0-5.34h5.44ZM70.8,63.76h3.36L74.79,62h4.36l.64,1.75h3.36L78.74,53H75.2Zm4.69-3.69L77,55.81l1.47,4.26Zm-9.2-4.39v8.06h3.38V55.68h3V53H63.27v2.7h3Zm-27,2.7c0,3,1.77,5.52,5.25,5.52,3.68,0,5.25-2.78,5.25-5.52s-1.61-5.52-5.25-5.52S39.29,55.53,39.29,58.39Zm3.38,0c0-1.45.71-2.37,1.87-2.37s1.87.92,1.87,2.37-.72,2.37-1.87,2.37S42.67,59.84,42.67,58.39Z" transform="translate(0.72 0.72)"/></svg>